<?xml version="1.0" encoding="UTF-8"?>
<svg id="Layer_1" xmlns="http://www.w3.org/2000/svg" version="1.1" viewBox="0 0 1072.8 1061">
  <!-- Generator: Adobe Illustrator 29.3.1, SVG Export Plug-In . SVG Version: 2.1.0 Build 151)  -->
  <defs>
    <style>
      .st0, .st1 {
        isolation: isolate;
      }

      .st1 {
        fill: #df0000;
        mix-blend-mode: multiply;
      }
    </style>
  </defs>
  <g class="st0">
    <g id="Ebene_1">
      <path class="st1" d="M1005,797.1c-12.2-121.9-68.3-203.8-68.3-203.8-95-194.8-304.3-260.8-428.1-156.1-7,2.3-13.6,5.4-19.8,9.2,93.8-129.7,310.6-119,451.7,43.2,0,0,64.6,77.5,110.5,192.9,12.2-40.6,19.7-82.8,21.8-125.9-75.6-102.3-160.8-162.4-160.8-162.4-177-119.4-387.5-75-446.3,72.1-6.2,7.3-11.3,15.6-15,24.5,16.4-159.2,209.5-258.4,412.7-188.4,0,0,98.5,36.2,198,116.3-1.4-6.4-2.7-12.8-4.3-19.1-10.8-42.3-26.5-82.4-46.5-119.9-116-50.3-218.8-59.5-218.8-59.5-219.2-15.3-382.2,137.1-348,299.1-.3,3-.4,6-.4,9.1,0,4.9.4,9.7,1,14.3-73.5-147.4,44.6-335.8,259.5-377.6,0,0,100.7-17.5,224.7,1-31.4-33.1-67.3-62.4-107.2-86.9-124.4,14.7-217,57.6-217,57.6-197.5,96.3-262.5,310.1-151.7,433.2,3.5,7.4,8,14.2,13.1,20.4-138.4-90.4-130.8-313.4,34.9-457.4,0,0,78-65.1,194.1-111C646.6,7.6,597,.3,546.9,0c-97,73.8-153.6,154.1-153.6,154.1-123.7,183.5-71.5,402.9,88.6,452.1l.6.6,2.1.9c4.7,3.2,9.8,6.1,15,8.5-164.8-9.4-269.4-206.2-198-413.5,0,0,33.2-90.2,106.2-185.1-41.8,11-81.5,26.7-118.6,46.7-47.2,112.6-56.1,210.8-56.1,210.8-15.2,217.3,134.6,379.6,295.1,348.8,3.2.3,6.5.5,9.8.5,5.7,0,11.2-.5,16.5-1.5-147.2,72.5-334.9-45.5-376.6-260,0,0-16.9-97.1,0-218-35.2,33.4-66.2,71.8-91.7,114.7,15.8,119.2,56.3,206.6,56.3,206.6,97,198.9,313.2,263.4,435.8,149.3l.8-.2,2.5-1.8c5.4-2.9,10.6-6.2,15.3-10.1-89.9,139.8-313.8,132.7-458.2-33.5,0,0-70.5-93.8-109.4-202-1.2-4.1.8-4.6-2.8-8.1-4.4-4.3-26.8,150.7-26.8,150.7,67.5,82.8,162.8,155.2,162.8,155.2,177.9,120.1,389.8,74.5,447.2-74.5,5.6-6.5,10.4-13.9,14.1-21.8-16.7,159-209.6,258-412.7,188,0,0-90.3-33.2-185.3-106.4.8,3.6,1.5,7.1,2.4,10.7,11.2,43.8,27.6,85.2,48.7,123.9,110.6,45.5,206,54,206,54,217.5,15.3,379.8-134.9,348.7-295.5.8-5.2,1.3-10.4,1.3-15.8s0-4-.2-6c68.3,146.6-49.5,331.2-261.9,372.4,0,0-94.9,16.5-213.9.6,28.5,30,60.6,56.8,96,79.8,123.3-14.9,214.8-57.4,214.8-57.4,193.5-94.3,259.8-301.4,158.3-425.5-3.6-8.9-8.4-17.1-14.3-24.5,132.8,92.6,123.2,311.7-40.3,453.8,0,0-79.5,66.2-197.3,112.3,46.2,15.5,94.2,24.7,142.6,27,102-75.5,161.8-160.3,161.8-160.3,123.5-183,71.8-402-87.5-451.8-6.2-4.2-12.9-7.7-20-10.4,165.5,8.6,270.7,205.8,199.1,413.6,0,0-36,98-115.7,197.1,6.4-1.4,12.6-2.7,19-4.3,40.4-10.3,78.5-25.2,113.9-43.6,49.4-115.1,58.5-216.8,58.5-216.8,15.1-214.2-130.4-374.9-288.2-350-6.4-1.4-13-2.1-19.9-2.1s-3,0-4.4.1c145.7-63.5,326.8,54,367.6,264.1,0,0,24.5,99.8,6.3,217.9-3.6,17,97.3-117.5,97.3-117.5h0Z"/>
    </g>
  </g>
</svg>