<?xml version="1.0" encoding="UTF-8"?>
<svg xmlns="http://www.w3.org/2000/svg" viewBox="0 0 1072.77 1061">
  <defs>
    <style>
      .cls-1 {
        fill: #fff;
        mix-blend-mode: multiply;
      }

      .cls-2 {
        isolation: isolate;
      }
    </style>
  </defs>
  <g class="cls-2">
    <g id="Ebene_1" data-name="Ebene 1">
      <path class="cls-1" d="M1004.96,797.13c-12.2-121.87-68.28-203.79-68.28-203.79-94.99-194.84-304.33-260.75-428.12-156.13-6.98,2.31-13.6,5.4-19.77,9.19,93.82-129.67,310.64-119.02,451.66,43.24,0,0,64.56,77.55,110.49,192.89,12.2-40.6,19.65-82.81,21.83-125.93-75.59-102.34-160.8-162.37-160.8-162.37-177.01-119.42-387.53-75.02-446.29,72.11-6.17,7.32-11.26,15.58-15.04,24.55,16.4-159.16,209.48-258.38,412.69-188.37,0,0,98.48,36.18,197.95,116.26-1.39-6.36-2.74-12.76-4.35-19.11-10.78-42.29-26.46-82.41-46.51-119.87-115.95-50.31-218.84-59.54-218.84-59.54-219.15-15.34-382.25,137.15-348.05,299.07-.28,3-.42,6.04-.42,9.11,0,4.87,.36,9.65,1.05,14.32-73.48-147.36,44.56-335.82,259.49-377.6,0,0,100.72-17.54,224.71,.97-31.41-33.15-67.3-62.37-107.17-86.88-124.41,14.65-216.98,57.61-216.98,57.61-197.55,96.27-262.53,310.13-151.72,433.2,3.52,7.37,7.96,14.22,13.14,20.4-138.39-90.41-130.78-313.41,34.86-457.37,0,0,78.05-65.05,194.08-111.03C646.6,7.64,596.99,.32,546.93,0c-96.96,73.8-153.64,154.1-153.64,154.1-123.71,183.5-71.52,402.93,88.6,452.11l.63,.63,2.1,.93c4.73,3.25,9.76,6.09,15.04,8.46-164.8-9.43-269.41-206.18-198.02-413.53,0,0,33.16-90.23,106.24-185.15-41.78,10.96-81.48,26.66-118.56,46.72-47.25,112.64-56.06,210.82-56.06,210.82-15.23,217.34,134.65,379.59,295.08,348.84,3.22,.32,6.49,.5,9.8,.5,5.65,0,11.19-.5,16.55-1.46-147.2,72.54-334.9-45.5-376.56-259.96,0,0-16.9-97.05,0-217.99-35.23,33.4-66.16,71.79-91.66,114.69,15.81,119.16,56.3,206.65,56.3,206.65,97.01,198.92,313.17,263.45,435.81,149.32l.84-.21,2.49-1.81c5.44-2.86,10.58-6.23,15.35-10.06-89.85,139.81-313.81,132.66-458.24-33.54,0,0-70.52-93.84-109.37-202.05-1.25-4.06,.83-4.57-2.82-8.06C22.38,355.64,0,510.67,0,510.67c67.51,82.79,162.81,155.19,162.81,155.19,177.94,120.06,389.78,74.51,447.16-74.54,5.63-6.54,10.39-13.86,14.11-21.79-16.71,158.97-209.59,257.97-412.72,187.97,0,0-90.28-33.18-185.27-106.38,.79,3.56,1.51,7.12,2.42,10.67,11.16,43.79,27.58,85.25,48.69,123.94,110.6,45.5,206.01,54.05,206.01,54.05,217.48,15.27,379.83-134.91,348.72-295.5,.85-5.15,1.29-10.44,1.29-15.85,0-2-.07-3.99-.19-5.95,68.27,146.56-49.49,331.16-261.94,372.43,0,0-94.92,16.54-213.9,.56,28.47,29.98,60.59,56.84,96.01,79.85,123.34-14.92,214.81-57.39,214.81-57.39,193.46-94.31,259.8-301.39,158.28-425.52-3.57-8.89-8.42-17.13-14.33-24.46,132.79,92.61,123.21,311.65-40.27,453.8,0,0-79.52,66.23-197.28,112.29,46.22,15.51,94.17,24.69,142.64,26.97,101.99-75.47,161.82-160.35,161.82-160.35,123.49-183.04,71.77-401.96-87.52-451.77-6.17-4.21-12.86-7.71-19.95-10.38,165.45,8.65,270.71,205.81,199.14,413.63,0,0-35.97,97.96-115.74,197.13,6.36-1.37,12.62-2.71,18.96-4.33,40.38-10.3,78.45-25.17,113.93-43.57,49.44-115.09,58.51-216.76,58.51-216.76,15.06-214.23-130.4-374.93-288.19-350.04-6.4-1.37-13.05-2.1-19.86-2.1-1.47,0-2.95,.04-4.41,.11,145.74-63.52,326.82,54,367.62,264.11,0,0,24.48,99.81,6.26,217.93-3.56,17.03,97.34-117.48,97.34-117.48Z"/>
    </g>
  </g>
</svg>