<?xml version="1.0" encoding="utf-8"?>
<!-- Generator: Adobe Illustrator 26.5.0, SVG Export Plug-In . SVG Version: 6.00 Build 0)  -->
<svg version="1.1" id="Ebene_1" xmlns="http://www.w3.org/2000/svg" xmlns:xlink="http://www.w3.org/1999/xlink" x="0px" y="0px"
	 viewBox="0 0 298.88 59.07" style="enable-background:new 0 0 298.88 59.07;" xml:space="preserve">
<style type="text/css">
	.st0{fill:#FFFFFF;}
	.st1{fill:#DF0000;}
</style>
<polyline class="st0" points="0,59.12 0,0 298.88,0 298.88,59.12 "/>
<g>
	<g>
		<path class="st1" d="M238.39,36.2c-0.91,2.97-3.63,5.84-6.35,6.51c-2.08,0.35-3.61,0.08-4.67-0.62c-1.12-0.78-1.8-2.1-2.12-3.37
			c-0.07-0.44-0.11-0.88-0.11-1.31c0-2.72,1.44-5.35,4.07-7.36c1.52-1.08,3.58-1.49,5.38-1.06c1.02,0.24,2.42,0.86,3.29,2.46
			c0.49,0.87,0.73,1.97,0.73,3.04C238.61,35.09,238.55,35.67,238.39,36.2 M133.13,36.2c-0.84,2.99-3.4,5.76-6.13,6.43
			c-2.03,0.39-3.84,0.16-4.9-0.54c-1.12-0.78-1.74-2.07-2.1-3.37c-0.14-0.59-0.14-0.88-0.14-1.31c0-2.72,1.44-5.35,4.07-7.36
			c1.52-1.08,3.58-1.49,5.39-1.06c1.02,0.24,2.42,0.86,3.29,2.46c0.49,0.87,0.74,1.97,0.74,3.04
			C133.37,35.09,133.29,35.67,133.13,36.2 M245.25,24.18c0-0.18-0.05-0.35-0.17-0.49c-0.14-0.17-0.34-0.24-0.56-0.24h-3.75
			c-0.34,0-0.64,0.22-0.71,0.56l-0.29,1.45c-0.83-0.76-1.66-1.25-2.85-1.71l-0.38-0.17c-0.04-0.02-0.09-0.03-0.14-0.04
			c-4.07-0.91-8.16,0.34-11.52,3.51c-1.67,1.56-2.92,3.37-3.76,5.33l3.73-20.33c0.04-0.16,0-0.36-0.1-0.49
			c-0.1-0.13-0.26-0.21-0.43-0.21l-5.01,0.01c-0.16,0-0.3,0.09-0.4,0.21c0,0-15.04,20.06-17.41,22.78
			c0.86-3.35,3.97-22.28,3.97-22.28c0.01-0.04,0.01-0.07,0.01-0.11c0-0.13-0.04-0.29-0.12-0.39c-0.1-0.13-0.26-0.2-0.42-0.2l-5.26,0
			c-0.16,0-0.31,0.09-0.41,0.21l-25.2,29.56c-0.42-4.3-2.44-8.99-2.44-8.99c-3.3-6.88-10.58-9.21-14.88-5.52
			c-0.24,0.08-0.47,0.19-0.69,0.33c3.26-4.58,10.8-4.2,15.7,1.53c0,0,2.25,2.74,3.84,6.81c0.42-1.43,0.68-2.92,0.76-4.45
			c-2.63-3.61-5.59-5.73-5.59-5.73c-6.15-4.22-13.47-2.65-15.52,2.55c-0.21,0.26-0.39,0.55-0.52,0.87
			c0.57-5.62,7.28-9.12,14.35-6.65c0,0,3.43,1.28,6.88,4.11c-0.05-0.22-0.1-0.45-0.15-0.68c-0.37-1.49-0.92-2.91-1.62-4.23
			c-4.03-1.77-7.61-2.1-7.61-2.1c-7.62-0.54-13.29,4.85-12.1,10.56c-0.01,0.11-0.02,0.21-0.02,0.32c0,0.17,0.01,0.34,0.04,0.5
			c-2.55-5.2,1.55-11.86,9.02-13.34c0,0,3.5-0.62,7.81,0.03c-1.09-1.17-2.34-2.2-3.73-3.07c-4.32,0.52-7.54,2.03-7.54,2.03
			c-6.87,3.4-9.13,10.96-5.28,15.3c0.12,0.26,0.28,0.5,0.46,0.72c-4.81-3.19-4.55-11.07,1.21-16.15c0,0,2.72-2.3,6.75-3.92
			c-1.67-0.51-3.39-0.77-5.13-0.78c-3.37,2.61-5.34,5.44-5.34,5.44c-4.3,6.48-2.49,14.23,3.08,15.97l0.02,0.02l0.07,0.03
			c0.16,0.11,0.34,0.21,0.52,0.3c-5.73-0.33-9.37-7.28-6.88-14.6c0,0,1.15-3.19,3.69-6.54c-1.45,0.39-2.83,0.94-4.12,1.65
			c-1.64,3.98-1.95,7.45-1.95,7.45c-0.53,7.68,4.68,13.41,10.26,12.32c0.11,0.01,0.23,0.02,0.34,0.02c0.2,0,0.39-0.02,0.58-0.05
			c-5.12,2.56-11.64-1.61-13.09-9.18c0,0-0.59-3.43,0-7.7c-1.22,1.18-2.3,2.54-3.19,4.05c0.55,4.21,1.96,7.3,1.96,7.3
			c3.37,7.02,10.89,9.3,15.15,5.27l0.03-0.01l0.09-0.06c0.19-0.1,0.37-0.22,0.53-0.36c-3.12,4.94-10.91,4.69-15.93-1.18
			c0,0-2.45-3.31-3.8-7.13c-0.04-0.14-0.14-0.37-0.27-0.49c-0.16-0.15-0.38-0.21-0.59-0.21h-3.75c-0.34,0-0.62,0.19-0.79,0.57
			c0,0-0.2,0.44-0.33,1.32c-0.83-0.76-1.79-1.19-2.69-1.59c0,0-0.48-0.17-0.53-0.18c-4.05-1-8.17,0.3-11.53,3.47
			c-1.98,1.85-3.36,4.05-4.16,6.42c0,0-0.03,0.06-0.07,0.15l1.71-9.33c0.04-0.21-0.02-0.43-0.16-0.59
			c-0.14-0.17-0.34-0.26-0.55-0.26l-4.16,0c-0.35,0-0.65,0.26-0.71,0.61l-4.13,22.89c-0.04,0.21,0.02,0.44,0.16,0.6
			c0.14,0.17,0.34,0.16,0.56,0.16l4.15,0c0.35,0,0.66-0.14,0.72-0.49l1.66-9.32c0.02,0.06,0.09,1.96,0.26,2.9
			c0.62,3.5,3.68,6.77,6.97,7.43c2.87,0.53,5.95-0.21,8.98-2.11c-0.06,0.34-0.16,0.84-0.16,0.84c-0.01,0.04-0.01,0.09-0.01,0.14
			c0,0.17,0.03,0.26,0.14,0.39c0.14,0.17,0.37,0.22,0.58,0.22l3.72,0.01c0.35,0,0.65-0.13,0.72-0.48l3.27-18.01
			c2.46,2.96,5.66,5.48,5.66,5.48c6.19,4.24,13.55,2.63,15.55-2.63c0.2-0.23,0.36-0.49,0.49-0.77c-0.58,5.62-7.29,9.11-14.35,6.64
			c0,0-3.14-1.17-6.44-3.76c0.03,0.13,0.05,0.25,0.08,0.38c0.39,1.55,0.96,3.01,1.69,4.38c3.85,1.61,7.16,1.91,7.16,1.91
			c7.56,0.54,13.2-4.76,12.12-10.44c0.03-0.18,0.04-0.37,0.04-0.56c0-0.07,0-0.14,0-0.21c2.37,5.17-1.72,11.69-9.11,13.15
			c0,0-3.3,0.58-7.44,0.02c0.99,1.06,2.11,2.01,3.34,2.82c4.29-0.53,7.47-2.03,7.47-2.03c6.73-3.33,9.03-10.64,5.5-15.03
			c-0.12-0.31-0.29-0.6-0.5-0.86c4.62,3.27,4.28,11.01-1.4,16.03c0,0-2.77,2.34-6.86,3.97c1.61,0.55,3.27,0.87,4.96,0.95
			c3.55-2.67,5.63-5.66,5.63-5.66c4.29-6.46,2.5-14.2-3.04-15.96c-0.21-0.15-0.45-0.27-0.69-0.37c5.75,0.3,9.41,7.27,6.92,14.61
			c0,0-1.25,3.46-4.02,6.96c0.22-0.05,0.44-0.1,0.66-0.15c1.4-0.36,2.73-0.89,3.96-1.54c1.72-4.06,2.03-7.65,2.03-7.65
			c0.52-7.57-4.53-13.24-10.02-12.36c-0.22-0.05-0.45-0.07-0.69-0.07c-0.05,0-0.1,0-0.15,0c5.07-2.24,11.36,1.91,12.78,9.33
			c0,0,0.85,3.53,0.22,7.7c-0.12,0.6-0.37,1.48-0.85,2.41c-0.15,0.26-0.33,0.56-0.55,0.92c0,0,0.01,0,0.01-0.01
			c-0.01,0.01-0.01,0.02-0.02,0.03c-0.01,0.01,0,0.01,0,0.02c-0.09,0.15-0.1,0.38-0.03,0.54c0.09,0.2,0.28,0.32,0.49,0.32l5.92,0
			c0.17,0,0.33-0.07,0.44-0.2c0,0,19.5-21.29,21.74-24.01c-0.86,4.51-2.58,15.39-4.17,23.54c-0.01,0.04-0.01,0.08-0.01,0.12
			c0,0.12,0.04,0.25,0.12,0.35c0.1,0.13,0.26,0.2,0.43,0.2l4.63,0c0.16,0,0.31-0.07,0.41-0.19c0,0,15.7-21.23,18.03-24
			c-0.97,4.52-2.61,15.49-4.21,23.51C213,47.05,213,47.09,213,47.13c0,0.12,0.04,0.24,0.12,0.34c0.1,0.13,0.26,0.23,0.43,0.23h4.57
			c0.25,0,0.47-0.19,0.53-0.43l1.68-9.91c0.01,0.35-0.01,0.62-0.01,0.62c-0.01,0.93-0.33,1.86-0.16,2.8
			c0.62,3.5,3.68,6.77,6.97,7.43c2.87,0.53,5.95-0.21,8.98-2.11c-0.06,0.34-0.16,0.84-0.16,0.84c-0.01,0.04-0.01,0.09-0.01,0.14
			c0,0.17,0.06,0.33,0.17,0.47c0.14,0.17,0.34,0.16,0.56,0.16l3.72,0c0.35,0,0.65-0.14,0.71-0.49l3.36-18.13L245.25,24.18z"/>
		<path class="st1" d="M271.69,45.68c-1.66-2.72-6.4-10.64-6.82-11.34c0.56-0.67,6.48-7.99,7.67-9.42l-0.53,2.84
			c-0.04,0.21,0.02,0.43,0.15,0.6c0.14,0.17,0.34,0.27,0.56,0.27h2.04C274.56,29.92,272.31,41.85,271.69,45.68 M286.14,23.71
			c-0.14-0.17-0.34-0.26-0.55-0.26c0,0-2.99,0-4.21,0c0.23-1.32,1.17-6.31,1.17-6.31c0.01-0.04,0.01-0.08,0.01-0.12
			c0-0.17-0.06-0.34-0.17-0.47c-0.14-0.17-0.34-0.26-0.55-0.26h-4.17c-0.35,0-0.65,0.26-0.71,0.61c0,0-1.03,5.58-1.2,6.57
			c-0.37,0.01-1.02,0-1.02,0l-0.63,0l-0.67,0c-0.26,0-0.49,0.1-0.62,0.32c-0.13-0.2-0.35-0.32-0.59-0.32l-3.71,0l-1.09,0
			c-0.2,0-0.39,0.07-0.53,0.22c0,0-3.38,4.34-5.36,6.52c0.58-3.46,2.36-13.07,2.36-13.07c0.01-0.04,0.01-0.08,0.01-0.12
			c0-0.17-0.06-0.34-0.17-0.47c-0.14-0.17-0.34-0.26-0.55-0.26l-4.11-0.01c-0.35,0-0.65,0.25-0.71,0.61
			c-0.1,0.56-0.66,3.26-1.22,6.63c-0.01-0.01-0.01-0.02-0.02-0.03c-0.14-0.17-0.35-0.31-0.57-0.3c-1.72,0.05-3.61,0.77-4.96,1.65
			l0.09-0.53c0.04-0.21-0.02-0.43-0.16-0.6c-0.14-0.17-0.34-0.22-0.55-0.23h-3.75c-0.35,0-0.65,0.21-0.72,0.55l-0.11,0.58
			l-4.01,22.27c-0.04,0.22,0.03,0.41,0.17,0.58c0.14,0.17,0.36,0.25,0.57,0.24l1.85,0h1.74c0.34,0,0.63-0.23,0.7-0.57l2.75-13.82
			c0.91-3.5,3.2-4.54,5.21-4.85c0.1-0.02,0.52-0.01,0.6-0.07c-1.39,8.38-3.03,18.3-3.05,18.46c-0.04,0.21,0.02,0.41,0.16,0.58
			c0.14,0.16,0.34,0.26,0.55,0.26h4.04c0.32,0,0.6-0.19,0.69-0.5c0.12-0.4,1.18-6.09,1.76-9.52c1.49,2.3,5.87,9.69,5.87,9.69
			c0.13,0.21,0.36,0.33,0.6,0.33l4.5,0c0.09,0,0.17-0.1,0.25-0.13c0.1,0.05,0.21,0.13,0.33,0.13h4.7c0.35,0,0.65-0.25,0.71-0.6
			c0,0,3.16-17.33,3.36-18.47c0.95,0,4.51-0.01,4.51-0.01c0.35,0,0.65-0.26,0.71-0.61l0.63-3.7c0.01-0.04,0.01-0.08,0.01-0.12
			C286.31,24.01,286.25,23.85,286.14,23.71"/>
		<path class="st1" d="M103.61,34.56c-0.02,0.73-0.09,1.1-0.23,1.64c-0.78,3.02-3.5,5.8-6.23,6.47c-2.1,0.42-3.73,0.14-4.79-0.56
			c-1.12-0.78-1.85-2.07-2.12-3.38c-0.12-0.53-0.13-0.89-0.13-1.32c0-2.72,1.51-5.35,4.15-7.36c1.52-1.08,3.58-1.49,5.39-1.06
			c1.02,0.24,2.27,0.93,3.22,2.49C103.38,32.32,103.64,33.43,103.61,34.56 M68.86,32.73c1.12-2.17,3.51-3.5,5.57-3.79
			c2.23-0.16,3.24,0.39,4.21,1.24c0.89,0.9,1.31,1.74,1.39,2.56C78.84,32.75,70.58,32.72,68.86,32.73 M111.45,16.56
			c-0.14-0.17-0.34-0.27-0.56-0.27h-3.75c-0.34,0-0.64,0.25-0.71,0.59c0,0-1.29,6.35-1.73,8.46c-0.84-0.76-1.82-1.2-2.72-1.59
			l-0.38-0.17c-0.04-0.02-0.09-0.03-0.14-0.04c-4.07-0.91-8.16,0.34-11.52,3.51c-1.98,1.85-3.41,4.05-4.21,6.42
			c-0.09-1.99-0.62-3.93-1.33-5.37c-0.01-0.02-0.02-0.04-0.03-0.05c-1.96-3.3-5.24-4.93-9.48-4.71c-0.02,0-0.04,0-0.05,0
			c-4.69,0.59-9.4,3.75-11.68,8.26c-0.04,0.07-0.07,0.14-0.11,0.21l3.56-19.77c0.04-0.17,0-0.35-0.1-0.49
			c-0.1-0.13-0.26-0.21-0.43-0.21h-4.88c-0.15,0-0.3,0.08-0.41,0.2c0,0-15.15,20.02-17.52,22.74c0.7-3.42,3.92-22.27,3.92-22.27
			c0.01-0.04,0.01-0.07,0.01-0.11c0-0.12-0.04-0.26-0.12-0.36c-0.1-0.13-0.26-0.2-0.42-0.2l-4.74,0.01c-0.16,0-0.31,0.09-0.41,0.2
			L11.47,46.74c-0.14,0.16-0.17,0.4-0.09,0.59c0.09,0.2,0.28,0.37,0.49,0.37c0,0,4.64,0.01,6.04-0.01c0.17,0,0.33-0.08,0.43-0.21
			c0,0,19.08-21.95,21.32-24.67c-0.86,4.51-2.64,16.06-4.38,24.2c-0.01,0.04-0.01,0.08-0.01,0.12c0,0.13,0.04,0.25,0.12,0.35
			c0.1,0.13,0.26,0.21,0.43,0.21l4.63,0c0.16,0,0.31-0.09,0.41-0.21c0,0,15.85-21.93,18.18-24.7c-0.97,4.52-2.46,16.19-4.36,24.23
			c-0.01,0.04-0.01,0.09-0.01,0.13c0,0.12,0.04,0.24,0.12,0.34c0.1,0.13,0.26,0.21,0.43,0.21h4.49c0.25,0,0.47-0.18,0.53-0.43
			l1.72-9.32c-0.02,2,0.37,3.96,1.21,5.53c1.67,2.96,4.67,4.73,8.25,4.87c5.14,0,10.05-3.14,12.23-7.8c0.11-0.23,0.09-0.5-0.04-0.71
			c-0.13-0.21-0.36-0.34-0.61-0.34h-3.85c-0.21,0-0.4,0.09-0.54,0.25c-1.83,2.07-3.88,3.15-6.1,3.2c-2.23,0.06-4.19-1.23-5.02-3.27
			c-0.02-0.08-0.07-0.26-0.07-0.26c-0.12-0.4-0.21-0.74-0.21-1.01c0-0.08,0.01-0.15,0.03-0.21c0.82,0,17.26-0.01,17.26-0.01
			c0.19,0,0.36-0.07,0.49-0.19c-0.01,0.93,0.07,1.86,0.23,2.8c0.62,3.5,3.68,6.77,6.97,7.43c2.87,0.53,5.94-0.21,8.98-2.11
			c-0.06,0.34-0.16,0.84-0.16,0.84c-0.01,0.04-0.01,0.09-0.01,0.14c0,0.17,0.06,0.33,0.17,0.47c0.14,0.17,0.34,0.16,0.56,0.16
			l3.72,0c0.35,0,0.65-0.13,0.71-0.48l5.46-30.05C111.65,16.94,111.59,16.72,111.45,16.56"/>
		<path class="st1" d="M112.64,22.77l4.14,0c0.35,0,0.65-0.35,0.71-0.7l0.9-4.91c0.04-0.21-0.02-0.43-0.15-0.6
			c-0.14-0.17-0.34-0.28-0.55-0.28l-4.17,0c-0.35,0-0.65,0.28-0.72,0.62l-0.87,4.88c-0.04,0.22,0.01,0.54,0.15,0.71
			C112.22,22.68,112.43,22.77,112.64,22.77"/>
		<path class="st1" d="M287.18,16.41h1.08c0.35,0,0.92-0.09,0.92-0.69c0-0.29-0.2-0.65-0.83-0.65h-1.17V16.41z M287.18,19.2h-1.03
			v-4.93h2.26c0.29,0,1.84,0,1.84,1.47c0,0.94-0.66,1.21-0.9,1.32l0.9,2.14h-1.1l-0.79-1.96h-1.19V19.2z M288.06,20.52
			c2.04,0,3.69-1.7,3.69-3.77c0-2.12-1.65-3.77-3.69-3.77c-2.02,0-3.7,1.65-3.7,3.77C284.36,18.82,286.01,20.52,288.06,20.52
			 M288.06,12.15c2.46,0,4.5,2.01,4.5,4.6c0,2.52-2,4.58-4.5,4.58c-2.51,0-4.5-2.06-4.5-4.58
			C283.55,14.15,285.58,12.15,288.06,12.15"/>
	</g>
</g>
</svg>
