<?xml version="1.0" encoding="UTF-8"?>
<svg width="299px" height="60px" viewBox="0 0 299 60" version="1.1" xmlns="http://www.w3.org/2000/svg" xmlns:xlink="http://www.w3.org/1999/xlink">
    <title>Untitled</title>
    <g id="Page-1" stroke="none" stroke-width="1" fill="none" fill-rule="evenodd">
        <g id="MM_LOGO-RGB-white" fill-rule="nonzero">
            <polyline id="Path" points="0 59.12 0 0 298.88 0 298.88 59.12"></polyline>
            <g id="Group" transform="translate(11.336364, 11.190000)" fill="#FFFFFF">
                <path d="M227.053636,25.01 C226.143636,27.98 223.423636,30.85 220.703636,31.52 C218.623636,31.87 217.093636,31.6 216.033636,30.9 C214.913636,30.12 214.233636,28.8 213.913636,27.53 C213.843636,27.09 213.803636,26.65 213.803636,26.22 C213.803636,23.5 215.243636,20.87 217.873636,18.86 C219.393636,17.78 221.453636,17.37 223.253636,17.8 C224.273636,18.04 225.673636,18.66 226.543636,20.26 C227.033636,21.13 227.273636,22.23 227.273636,23.3 C227.273636,23.9 227.213636,24.48 227.053636,25.01 M121.793636,25.01 C120.953636,28 118.393636,30.77 115.663636,31.44 C113.633636,31.83 111.823636,31.6 110.763636,30.9 C109.643636,30.12 109.023636,28.83 108.663636,27.53 C108.523636,26.94 108.523636,26.65 108.523636,26.22 C108.523636,23.5 109.963636,20.87 112.593636,18.86 C114.113636,17.78 116.173636,17.37 117.983636,17.8 C119.003636,18.04 120.403636,18.66 121.273636,20.26 C121.763636,21.13 122.013636,22.23 122.013636,23.3 C122.033636,23.9 121.953636,24.48 121.793636,25.01 M233.913636,12.99 C233.913636,12.81 233.863636,12.64 233.743636,12.5 C233.603636,12.33 233.403636,12.26 233.183636,12.26 L229.433636,12.26 C229.093636,12.26 228.793636,12.48 228.723636,12.82 L228.433636,14.27 C227.603636,13.51 226.773636,13.02 225.583636,12.56 L225.203636,12.39 C225.163636,12.37 225.113636,12.36 225.063636,12.35 C220.993636,11.44 216.903636,12.69 213.543636,15.86 C211.873636,17.42 210.623636,19.23 209.783636,21.19 L213.513636,0.86 C213.553636,0.7 213.513636,0.5 213.413636,0.37 C213.313636,0.24 213.153636,0.16 212.983636,0.16 L207.973636,0.17 C207.813636,0.17 207.673636,0.26 207.573636,0.38 C207.573636,0.38 192.533636,20.44 190.163636,23.16 C191.023636,19.81 194.133636,0.88 194.133636,0.88 C194.143636,0.84 194.143636,0.81 194.143636,0.77 C194.143636,0.64 194.103636,0.48 194.023636,0.38 C193.923636,0.25 193.763636,0.18 193.603636,0.18 L188.343636,0.18 C188.183636,0.18 188.033636,0.27 187.933636,0.39 L162.733636,29.95 C162.313636,25.65 160.293636,20.96 160.293636,20.96 C156.993636,14.08 149.713636,11.75 145.413636,15.44 C145.173636,15.52 144.943636,15.63 144.723636,15.77 C147.983636,11.19 155.523636,11.57 160.423636,17.3 C160.423636,17.3 162.673636,20.04 164.263636,24.11 C164.683636,22.68 164.943636,21.19 165.023636,19.66 C162.393636,16.05 159.433636,13.93 159.433636,13.93 C153.283636,9.71 145.963636,11.28 143.913636,16.48 C143.703636,16.74 143.523636,17.03 143.393636,17.35 C143.963636,11.73 150.673636,8.23 157.743636,10.7 C157.743636,10.7 161.173636,11.98 164.623636,14.81 C164.573636,14.59 164.523636,14.36 164.473636,14.13 C164.103636,12.64 163.553636,11.22 162.853636,9.9 C158.823636,8.13 155.243636,7.8 155.243636,7.8 C147.623636,7.26 141.953636,12.65 143.143636,18.36 C143.133636,18.47 143.123636,18.57 143.123636,18.68 C143.123636,18.85 143.133636,19.02 143.163636,19.18 C140.613636,13.98 144.713636,7.32 152.183636,5.84 C152.183636,5.84 155.683636,5.22 159.993636,5.87 C158.903636,4.7 157.653636,3.67 156.263636,2.8 C151.943636,3.32 148.723636,4.83 148.723636,4.83 C141.853636,8.23 139.593636,15.79 143.443636,20.13 C143.563636,20.39 143.723636,20.63 143.903636,20.85 C139.093636,17.66 139.353636,9.78 145.113636,4.7 C145.113636,4.7 147.833636,2.4 151.863636,0.78 C150.193636,0.27 148.473636,0.01 146.733636,0 C143.363636,2.61 141.393636,5.44 141.393636,5.44 C137.093636,11.92 138.903636,19.67 144.473636,21.41 L144.493636,21.43 L144.563636,21.46 C144.723636,21.57 144.903636,21.67 145.083636,21.76 C139.353636,21.43 135.713636,14.48 138.203636,7.16 C138.203636,7.16 139.353636,3.97 141.893636,0.62 C140.443636,1.01 139.063636,1.56 137.773636,2.27 C136.133636,6.25 135.823636,9.72 135.823636,9.72 C135.293636,17.4 140.503636,23.13 146.083636,22.04 C146.193636,22.05 146.313636,22.06 146.423636,22.06 C146.623636,22.06 146.813636,22.04 147.003636,22.01 C141.883636,24.57 135.363636,20.4 133.913636,12.83 C133.913636,12.83 133.323636,9.4 133.913636,5.13 C132.693636,6.31 131.613636,7.67 130.723636,9.18 C131.273636,13.39 132.683636,16.48 132.683636,16.48 C136.053636,23.5 143.573636,25.78 147.833636,21.75 L147.863636,21.74 L147.953636,21.68 C148.143636,21.58 148.323636,21.46 148.483636,21.32 C145.363636,26.26 137.573636,26.01 132.553636,20.14 C132.553636,20.14 130.103636,16.83 128.753636,13.01 C128.713636,12.87 128.613636,12.64 128.483636,12.52 C128.323636,12.37 128.103636,12.31 127.893636,12.31 L124.143636,12.31 C123.803636,12.31 123.523636,12.5 123.353636,12.88 C123.353636,12.88 123.153636,13.32 123.023636,14.2 C122.193636,13.44 121.233636,13.01 120.333636,12.61 C120.333636,12.61 119.853636,12.44 119.803636,12.43 C115.753636,11.43 111.633636,12.73 108.273636,15.9 C106.293636,17.75 104.913636,19.95 104.113636,22.32 C104.113636,22.32 104.083636,22.38 104.043636,22.47 L105.753636,13.14 C105.793636,12.93 105.733636,12.71 105.593636,12.55 C105.453636,12.38 105.253636,12.29 105.043636,12.29 L100.883636,12.29 C100.533636,12.29 100.233636,12.55 100.173636,12.9 L96.0436364,35.79 C96.0036364,36 96.0636364,36.23 96.2036364,36.39 C96.3436364,36.56 96.5436364,36.55 96.7636364,36.55 L100.913636,36.55 C101.263636,36.55 101.573636,36.41 101.633636,36.06 L103.293636,26.74 C103.313636,26.8 103.383636,28.7 103.553636,29.64 C104.173636,33.14 107.233636,36.41 110.523636,37.07 C113.393636,37.6 116.473636,36.86 119.503636,34.96 C119.443636,35.3 119.343636,35.8 119.343636,35.8 C119.333636,35.84 119.333636,35.89 119.333636,35.94 C119.333636,36.11 119.363636,36.2 119.473636,36.33 C119.613636,36.5 119.843636,36.55 120.053636,36.55 L123.773636,36.56 C124.123636,36.56 124.423636,36.43 124.493636,36.08 L127.763636,18.07 C130.223636,21.03 133.423636,23.55 133.423636,23.55 C139.613636,27.79 146.973636,26.18 148.973636,20.92 C149.173636,20.69 149.333636,20.43 149.463636,20.15 C148.883636,25.77 142.173636,29.26 135.113636,26.79 C135.113636,26.79 131.973636,25.62 128.673636,23.03 C128.703636,23.16 128.723636,23.28 128.753636,23.41 C129.143636,24.96 129.713636,26.42 130.443636,27.79 C134.293636,29.4 137.603636,29.7 137.603636,29.7 C145.163636,30.24 150.803636,24.94 149.723636,19.26 C149.753636,19.08 149.763636,18.89 149.763636,18.7 C149.763636,18.63 149.763636,18.56 149.763636,18.49 C152.133636,23.66 148.043636,30.18 140.653636,31.64 C140.653636,31.64 137.353636,32.22 133.213636,31.66 C134.203636,32.72 135.323636,33.67 136.553636,34.48 C140.843636,33.95 144.023636,32.45 144.023636,32.45 C150.753636,29.12 153.053636,21.81 149.523636,17.42 C149.403636,17.11 149.233636,16.82 149.023636,16.56 C153.643636,19.83 153.303636,27.57 147.623636,32.59 C147.623636,32.59 144.853636,34.93 140.763636,36.56 C142.373636,37.11 144.033636,37.43 145.723636,37.51 C149.273636,34.84 151.353636,31.85 151.353636,31.85 C155.643636,25.39 153.853636,17.65 148.313636,15.89 C148.103636,15.74 147.863636,15.62 147.623636,15.52 C153.373636,15.82 157.033636,22.79 154.543636,30.13 C154.543636,30.13 153.293636,33.59 150.523636,37.09 C150.743636,37.04 150.963636,36.99 151.183636,36.94 C152.583636,36.58 153.913636,36.05 155.143636,35.4 C156.863636,31.34 157.173636,27.75 157.173636,27.75 C157.693636,20.18 152.643636,14.51 147.153636,15.39 C146.933636,15.34 146.703636,15.32 146.463636,15.32 C146.413636,15.32 146.363636,15.32 146.313636,15.32 C151.383636,13.08 157.673636,17.23 159.093636,24.65 C159.093636,24.65 159.943636,28.18 159.313636,32.35 C159.193636,32.95 158.943636,33.83 158.463636,34.76 C158.313636,35.02 158.133636,35.32 157.913636,35.68 C157.913636,35.68 157.923636,35.68 157.923636,35.67 C157.913636,35.68 157.913636,35.69 157.903636,35.7 C157.893636,35.71 157.903636,35.71 157.903636,35.72 C157.813636,35.87 157.803636,36.1 157.873636,36.26 C157.963636,36.46 158.153636,36.58 158.363636,36.58 L164.283636,36.58 C164.453636,36.58 164.613636,36.51 164.723636,36.38 C164.723636,36.38 184.223636,15.09 186.463636,12.37 C185.603636,16.88 183.883636,27.76 182.293636,35.91 C182.283636,35.95 182.283636,35.99 182.283636,36.03 C182.283636,36.15 182.323636,36.28 182.403636,36.38 C182.503636,36.51 182.663636,36.58 182.833636,36.58 L187.463636,36.58 C187.623636,36.58 187.773636,36.51 187.873636,36.39 C187.873636,36.39 203.573636,15.16 205.903636,12.39 C204.933636,16.91 203.293636,27.88 201.693636,35.9 C201.663636,35.86 201.663636,35.9 201.663636,35.94 C201.663636,36.06 201.703636,36.18 201.783636,36.28 C201.883636,36.41 202.043636,36.51 202.213636,36.51 L206.783636,36.51 C207.033636,36.51 207.253636,36.32 207.313636,36.08 L208.993636,26.17 C209.003636,26.52 208.983636,26.79 208.983636,26.79 C208.973636,27.72 208.653636,28.65 208.823636,29.59 C209.443636,33.09 212.503636,36.36 215.793636,37.02 C218.663636,37.55 221.743636,36.81 224.773636,34.91 C224.713636,35.25 224.613636,35.75 224.613636,35.75 C224.603636,35.79 224.603636,35.84 224.603636,35.89 C224.603636,36.06 224.663636,36.22 224.773636,36.36 C224.913636,36.53 225.113636,36.52 225.333636,36.52 L229.053636,36.52 C229.403636,36.52 229.703636,36.38 229.763636,36.03 L233.123636,17.9 L233.913636,12.99 Z" id="Shape"></path>
                <path d="M260.353636,34.49 C258.693636,31.77 253.953636,23.85 253.533636,23.15 C254.093636,22.48 260.013636,15.16 261.203636,13.73 L260.673636,16.57 C260.633636,16.78 260.693636,17 260.823636,17.17 C260.963636,17.34 261.163636,17.44 261.383636,17.44 L263.423636,17.44 C263.223636,18.73 260.973636,30.66 260.353636,34.49 M274.803636,12.52 C274.663636,12.35 274.463636,12.26 274.253636,12.26 C274.253636,12.26 271.263636,12.26 270.043636,12.26 C270.273636,10.94 271.213636,5.95 271.213636,5.95 C271.223636,5.91 271.223636,5.87 271.223636,5.83 C271.223636,5.66 271.163636,5.49 271.053636,5.36 C270.913636,5.19 270.713636,5.1 270.503636,5.1 L266.333636,5.1 C265.983636,5.1 265.683636,5.36 265.623636,5.71 C265.623636,5.71 264.593636,11.29 264.423636,12.28 C264.053636,12.29 263.403636,12.28 263.403636,12.28 L262.773636,12.28 L262.103636,12.28 C261.843636,12.28 261.613636,12.38 261.483636,12.6 C261.353636,12.4 261.133636,12.28 260.893636,12.28 L257.183636,12.28 L256.093636,12.28 C255.893636,12.28 255.703636,12.35 255.563636,12.5 C255.563636,12.5 252.183636,16.84 250.203636,19.02 C250.783636,15.56 252.563636,5.95 252.563636,5.95 C252.573636,5.91 252.573636,5.87 252.573636,5.83 C252.573636,5.66 252.513636,5.49 252.403636,5.36 C252.263636,5.19 252.063636,5.1 251.853636,5.1 L247.743636,5.09 C247.393636,5.09 247.093636,5.34 247.033636,5.7 C246.933636,6.26 246.373636,8.96 245.813636,12.33 C245.803636,12.32 245.803636,12.31 245.793636,12.3 C245.653636,12.13 245.443636,11.99 245.223636,12 C243.503636,12.05 241.613636,12.77 240.263636,13.65 L240.353636,13.12 C240.393636,12.91 240.333636,12.69 240.193636,12.52 C240.053636,12.35 239.853636,12.3 239.643636,12.29 L235.893636,12.29 C235.543636,12.29 235.243636,12.5 235.173636,12.84 L235.063636,13.42 L231.053636,35.69 C231.013636,35.91 231.083636,36.1 231.223636,36.27 C231.363636,36.44 231.583636,36.52 231.793636,36.51 L233.643636,36.51 L235.383636,36.51 C235.723636,36.51 236.013636,36.28 236.083636,35.94 L238.833636,22.12 C239.743636,18.62 242.033636,17.58 244.043636,17.27 C244.143636,17.25 244.563636,17.26 244.643636,17.2 C243.253636,25.58 241.613636,35.5 241.593636,35.66 C241.553636,35.87 241.613636,36.07 241.753636,36.24 C241.893636,36.4 242.093636,36.5 242.303636,36.5 L246.343636,36.5 C246.663636,36.5 246.943636,36.31 247.033636,36 C247.153636,35.6 248.213636,29.91 248.793636,26.48 C250.283636,28.78 254.663636,36.17 254.663636,36.17 C254.793636,36.38 255.023636,36.5 255.263636,36.5 L259.763636,36.5 C259.853636,36.5 259.933636,36.4 260.013636,36.37 C260.113636,36.42 260.223636,36.5 260.343636,36.5 L265.043636,36.5 C265.393636,36.5 265.693636,36.25 265.753636,35.9 C265.753636,35.9 268.913636,18.57 269.113636,17.43 C270.063636,17.43 273.623636,17.42 273.623636,17.42 C273.973636,17.42 274.273636,17.16 274.333636,16.81 L274.963636,13.11 C274.973636,13.07 274.973636,13.03 274.973636,12.99 C274.973636,12.82 274.913636,12.66 274.803636,12.52" id="Shape"></path>
                <path d="M92.2736364,23.37 C92.2536364,24.1 92.1836364,24.47 92.0436364,25.01 C91.2636364,28.03 88.5436364,30.81 85.8136364,31.48 C83.7136364,31.9 82.0836364,31.62 81.0236364,30.92 C79.9036364,30.14 79.1736364,28.85 78.9036364,27.54 C78.7836364,27.01 78.7736364,26.65 78.7736364,26.22 C78.7736364,23.5 80.2836364,20.87 82.9236364,18.86 C84.4436364,17.78 86.5036364,17.37 88.3136364,17.8 C89.3336364,18.04 90.5836364,18.73 91.5336364,20.29 C92.0436364,21.13 92.3036364,22.24 92.2736364,23.37 M57.5236364,21.54 C58.6436364,19.37 61.0336364,18.04 63.0936364,17.75 C65.3236364,17.59 66.3336364,18.14 67.3036364,18.99 C68.1936364,19.89 68.6136364,20.73 68.6936364,21.55 C67.5036364,21.56 59.2436364,21.53 57.5236364,21.54 M100.113636,5.37 C99.9736364,5.2 99.7736364,5.1 99.5536364,5.1 L95.8036364,5.1 C95.4636364,5.1 95.1636364,5.35 95.0936364,5.69 C95.0936364,5.69 93.8036364,12.04 93.3636364,14.15 C92.5236364,13.39 91.5436364,12.95 90.6436364,12.56 L90.2636364,12.39 C90.2236364,12.37 90.1736364,12.36 90.1236364,12.35 C86.0536364,11.44 81.9636364,12.69 78.6036364,15.86 C76.6236364,17.71 75.1936364,19.91 74.3936364,22.28 C74.3036364,20.29 73.7736364,18.35 73.0636364,16.91 C73.0536364,16.89 73.0436364,16.87 73.0336364,16.86 C71.0736364,13.56 67.7936364,11.93 63.5536364,12.15 C63.5336364,12.15 63.5136364,12.15 63.5036364,12.15 C58.8136364,12.74 54.1036364,15.9 51.8236364,20.41 C51.7836364,20.48 51.7536364,20.55 51.7136364,20.62 L55.2736364,0.85 C55.3136364,0.68 55.2736364,0.5 55.1736364,0.36 C55.0736364,0.23 54.9136364,0.15 54.7436364,0.15 L49.8636364,0.15 C49.7136364,0.15 49.5636364,0.23 49.4536364,0.35 C49.4536364,0.35 34.3036364,20.37 31.9336364,23.09 C32.6336364,19.67 35.8536364,0.82 35.8536364,0.82 C35.8636364,0.78 35.8636364,0.75 35.8636364,0.71 C35.8636364,0.59 35.8236364,0.45 35.7436364,0.35 C35.6436364,0.22 35.4836364,0.15 35.3236364,0.15 L30.5836364,0.16 C30.4236364,0.16 30.2736364,0.25 30.1736364,0.36 L0.133636364,35.55 C-0.00636363636,35.71 -0.0363636364,35.95 0.0436363636,36.14 C0.133636364,36.34 0.323636364,36.51 0.533636364,36.51 C0.533636364,36.51 5.17363636,36.52 6.57363636,36.5 C6.74363636,36.5 6.90363636,36.42 7.00363636,36.29 C7.00363636,36.29 26.0836364,14.34 28.3236364,11.62 C27.4636364,16.13 25.6836364,27.68 23.9436364,35.82 C23.9336364,35.86 23.9336364,35.9 23.9336364,35.94 C23.9336364,36.07 23.9736364,36.19 24.0536364,36.29 C24.1536364,36.42 24.3136364,36.5 24.4836364,36.5 L29.1136364,36.5 C29.2736364,36.5 29.4236364,36.41 29.5236364,36.29 C29.5236364,36.29 45.3736364,14.36 47.7036364,11.59 C46.7336364,16.11 45.2436364,27.78 43.3436364,35.82 C43.3336364,35.86 43.3336364,35.91 43.3336364,35.95 C43.3336364,36.07 43.3736364,36.19 43.4536364,36.29 C43.5536364,36.42 43.7136364,36.5 43.8836364,36.5 L48.3736364,36.5 C48.6236364,36.5 48.8436364,36.32 48.9036364,36.07 L50.6236364,26.75 C50.6036364,28.75 50.9936364,30.71 51.8336364,32.28 C53.5036364,35.24 56.5036364,37.01 60.0836364,37.15 C65.2236364,37.15 70.1336364,34.01 72.3136364,29.35 C72.4236364,29.12 72.4036364,28.85 72.2736364,28.64 C72.1436364,28.43 71.9136364,28.3 71.6636364,28.3 L67.8136364,28.3 C67.6036364,28.3 67.4136364,28.39 67.2736364,28.55 C65.4436364,30.62 63.3936364,31.7 61.1736364,31.75 C58.9436364,31.81 56.9836364,30.52 56.1536364,28.48 C56.1336364,28.4 56.0836364,28.22 56.0836364,28.22 C55.9636364,27.82 55.8736364,27.48 55.8736364,27.21 C55.8736364,27.13 55.8836364,27.06 55.9036364,27 C56.7236364,27 73.1636364,26.99 73.1636364,26.99 C73.3536364,26.99 73.5236364,26.92 73.6536364,26.8 C73.6436364,27.73 73.7236364,28.66 73.8836364,29.6 C74.5036364,33.1 77.5636364,36.37 80.8536364,37.03 C83.7236364,37.56 86.7936364,36.82 89.8336364,34.92 C89.7736364,35.26 89.6736364,35.76 89.6736364,35.76 C89.6636364,35.8 89.6636364,35.85 89.6636364,35.9 C89.6636364,36.07 89.7236364,36.23 89.8336364,36.37 C89.9736364,36.54 90.1736364,36.53 90.3936364,36.53 L94.1136364,36.53 C94.4636364,36.53 94.7636364,36.4 94.8236364,36.05 L100.283636,6 C100.313636,5.75 100.253636,5.53 100.113636,5.37" id="Shape"></path>
                <path d="M101.303636,11.58 L105.443636,11.58 C105.793636,11.58 106.093636,11.23 106.153636,10.88 L107.053636,5.97 C107.093636,5.76 107.033636,5.54 106.903636,5.37 C106.763636,5.2 106.563636,5.09 106.353636,5.09 L102.183636,5.09 C101.833636,5.09 101.533636,5.37 101.463636,5.71 L100.593636,10.59 C100.553636,10.81 100.603636,11.13 100.743636,11.3 C100.883636,11.49 101.093636,11.58 101.303636,11.58" id="Path"></path>
                <path d="M275.843636,5.22 L276.923636,5.22 C277.273636,5.22 277.843636,5.13 277.843636,4.53 C277.843636,4.24 277.643636,3.88 277.013636,3.88 L275.843636,3.88 L275.843636,5.22 Z M275.843636,8.01 L274.813636,8.01 L274.813636,3.08 L277.073636,3.08 C277.363636,3.08 278.913636,3.08 278.913636,4.55 C278.913636,5.49 278.253636,5.76 278.013636,5.87 L278.913636,8.01 L277.813636,8.01 L277.023636,6.05 L275.833636,6.05 L275.833636,8.01 L275.843636,8.01 Z M276.723636,9.33 C278.763636,9.33 280.413636,7.63 280.413636,5.56 C280.413636,3.44 278.763636,1.79 276.723636,1.79 C274.703636,1.79 273.023636,3.44 273.023636,5.56 C273.023636,7.63 274.673636,9.33 276.723636,9.33 M276.723636,0.96 C279.183636,0.96 281.223636,2.97 281.223636,5.56 C281.223636,8.08 279.223636,10.14 276.723636,10.14 C274.213636,10.14 272.2236,8.08 272.2236,5.56 C272.213636,2.96 274.243636,0.96 276.723636,0.96" id="Shape"></path>
            </g>
        </g>
    </g>
</svg>